<?xml version="1.0" standalone="no"?>
<!DOCTYPE svg PUBLIC "-//W3C//DTD SVG 20010904//EN"
 "http://www.w3.org/TR/2001/REC-SVG-20010904/DTD/svg10.dtd">
<svg version="1.0" xmlns="http://www.w3.org/2000/svg"
 width="1250.000000pt" height="1250.000000pt" viewBox="0 0 1250.000000 1250.000000"
 preserveAspectRatio="xMidYMid meet">

<g transform="translate(0.000000,1250.000000) scale(0.100000,-0.100000)"
fill="#000000" stroke="none">
<path d="M5990 8975 c-353 -118 -536 -158 -710 -159 -135 0 -207 17 -355 79
-157 67 -197 69 -261 13 -45 -40 -64 -106 -64 -227 0 -187 75 -441 290 -986
l83 -209 31 39 c104 132 190 201 290 230 129 38 266 -35 367 -193 220 -348
284 -411 493 -493 85 -34 71 -37 -33 -8 -171 48 -247 109 -418 332 -248 324
-322 356 -513 227 -64 -43 -190 -161 -190 -176 0 -5 4 -15 9 -23 7 -11 20 -5
62 33 92 82 175 119 219 96 11 -6 66 -79 121 -163 136 -203 208 -294 320 -402
244 -235 528 -353 894 -372 471 -23 918 163 1188 497 26 31 27 32 11 5 -9 -16
-42 -61 -72 -98 -202 -250 -595 -415 -1032 -434 -322 -14 -634 53 -823 177
-149 98 -369 343 -527 585 -105 161 -110 166 -150 155 -42 -12 -73 -33 -131
-87 l-47 -44 35 -112 c82 -264 205 -537 278 -616 52 -57 95 -76 235 -101 258
-45 331 -52 662 -57 268 -4 349 -2 457 11 314 40 676 164 880 301 189 127 311
302 311 446 0 44 -4 55 -30 79 -37 35 -81 43 -180 34 -86 -7 -144 6 -160 36
-6 10 -10 86 -10 168 0 104 -5 164 -15 200 -21 68 -75 126 -135 142 -63 17
-200 7 -280 -20 -82 -28 -371 -167 -437 -210 -82 -54 -134 -150 -168 -309
l-14 -66 4 88 c6 101 33 179 90 259 l37 50 -16 82 c-25 129 -25 136 -41 446
-8 162 -20 331 -26 375 -30 233 -115 394 -226 424 -75 21 -131 13 -303 -44z
m309 -72 c29 -22 56 -71 66 -123 6 -33 5 -32 -29 21 -66 103 -114 115 -285 70
-135 -35 -133 -24 5 25 83 29 108 34 158 30 36 -3 69 -12 85 -23z"/>
<path d="M7343 6612 c-46 -20 -83 -40 -83 -44 0 -4 16 -10 35 -14 19 -3 39
-12 45 -19 5 -6 80 -157 165 -335 85 -178 162 -332 171 -342 18 -19 59 -25 68
-9 10 15 -289 796 -305 798 -8 1 -51 -15 -96 -35z"/>
<path d="M5436 6471 c-13 -40 -145 -513 -176 -629 -8 -33 -8 -47 1 -58 16 -19
43 -18 63 5 19 21 88 189 146 357 22 65 48 127 58 137 26 30 147 85 226 102
47 11 108 15 181 13 l110 -3 18 -103 c10 -57 54 -333 97 -613 44 -280 82 -514
85 -519 4 -6 22 -10 41 -10 l34 0 0 69 c0 38 -16 286 -35 550 -40 542 -44 499
42 555 26 17 54 43 61 59 11 23 19 27 53 27 21 0 39 -4 39 -9 0 -5 14 -46 31
-90 25 -65 35 -81 51 -81 20 0 21 4 14 92 -3 50 -11 95 -17 99 -6 3 -149 9
-318 12 -318 5 -446 17 -672 61 l-119 23 -14 -46z"/>
<path d="M8287 4749 c-119 -17 -227 -100 -284 -218 -26 -52 -28 -66 -28 -176
0 -114 2 -123 32 -187 39 -82 106 -151 181 -186 50 -24 69 -27 162 -27 94 0
110 3 156 27 75 39 140 108 177 186 31 64 32 72 32 192 0 146 -13 184 -97 276
-86 93 -199 132 -331 113z m149 -50 c42 -15 91 -69 120 -131 25 -57 28 -75 32
-199 5 -158 -9 -222 -61 -290 -45 -59 -105 -89 -180 -89 -73 0 -117 20 -162
73 -63 73 -79 132 -79 292 -1 124 2 146 22 195 40 94 82 136 162 161 27 8 111
1 146 -12z"/>
<path d="M2710 4730 c-12 -8 -11 -10 8 -10 13 0 36 -7 51 -14 l28 -15 6 -133
c3 -73 2 -227 -1 -343 l-7 -210 -48 -16 c-35 -12 -44 -18 -32 -23 26 -10 288
-7 305 4 12 8 10 10 -10 10 -14 0 -40 9 -57 20 l-33 20 0 325 0 326 25 24 c16
16 36 25 57 25 25 0 29 3 18 10 -8 5 -78 10 -155 10 -77 0 -147 -5 -155 -10z"/>
<path d="M3286 4731 c-3 -5 9 -12 28 -15 18 -4 52 -20 75 -36 l41 -30 0 -306
c0 -188 -4 -313 -10 -324 -6 -11 -28 -25 -50 -31 -22 -7 -37 -16 -34 -20 6
-10 238 -12 247 -2 4 3 -14 14 -40 22 l-48 16 -6 75 c-10 115 -10 480 -1 480
5 0 33 -30 63 -67 30 -37 144 -176 254 -308 l200 -240 6 352 c4 194 9 363 13
376 6 25 43 47 77 47 11 0 17 5 14 10 -4 6 -57 10 -125 10 -68 0 -121 -4 -125
-10 -4 -6 6 -10 22 -10 50 0 66 -20 74 -96 12 -101 11 -456 0 -452 -6 2 -96
109 -201 238 -106 129 -210 256 -232 283 l-39 47 -99 0 c-54 0 -101 -4 -104
-9z"/>
<path d="M4420 4688 c0 -29 -3 -70 -7 -92 -8 -51 14 -46 32 8 24 68 43 79 145
86 l91 5 -3 -336 c-2 -258 -6 -340 -16 -352 -7 -8 -32 -19 -55 -23 l-42 -8 55
-7 c135 -17 349 -4 248 15 -69 13 -65 -4 -73 370 l-7 338 90 -3 c84 -4 93 -6
121 -33 16 -16 33 -42 36 -57 14 -63 26 -39 23 48 l-3 88 -317 3 -318 2 0 -52z"/>
<path d="M5375 4731 c-15 -6 -12 -9 19 -14 69 -11 66 6 66 -362 0 -370 3 -357
-71 -372 -33 -7 -33 -7 -9 -14 32 -9 437 -11 517 -3 l60 7 27 84 c26 79 28
123 4 78 -6 -11 -35 -44 -63 -73 l-53 -53 -143 3 -144 3 -3 168 -2 169 114 -4
c129 -3 147 -12 168 -80 8 -26 14 -35 20 -26 11 19 10 246 -2 253 -5 3 -10 1
-10 -5 0 -7 -7 -27 -16 -45 -21 -44 -55 -55 -175 -55 l-99 0 0 156 0 156 144
-4 c134 -3 146 -5 169 -26 13 -12 29 -41 36 -63 7 -22 16 -37 21 -34 11 7 13
72 4 128 l-7 37 -276 -1 c-152 0 -285 -4 -296 -8z"/>
<path d="M6310 4730 c-11 -7 -8 -10 16 -10 17 0 43 -9 58 -21 l26 -20 0 -330
0 -329 -32 -20 c-18 -11 -44 -20 -58 -20 -20 0 -22 -2 -10 -10 8 -5 78 -10
155 -10 77 0 147 5 155 10 12 8 9 10 -11 10 -15 0 -38 9 -53 21 l-26 20 0 152
0 152 37 -1 c37 -1 40 -4 168 -180 l131 -179 97 0 c101 0 128 13 60 29 -49 12
-114 78 -217 223 -44 61 -80 114 -80 118 -1 5 16 14 37 21 92 32 140 95 140
184 0 108 -67 173 -194 190 -96 12 -380 12 -399 0z m395 -58 c35 -20 75 -93
75 -137 0 -17 -10 -51 -22 -75 -28 -54 -85 -86 -170 -96 l-58 -7 0 166 0 166
33 4 c49 7 108 -2 142 -21z"/>
<path d="M7342 4731 c-9 -5 -1 -10 26 -15 66 -10 67 -11 70 -285 2 -135 -1
-286 -5 -336 l-8 -90 -48 -16 c-69 -23 -42 -29 121 -29 139 0 197 11 129 24
-20 4 -45 14 -57 24 -21 17 -21 21 -18 345 l3 329 24 19 c13 10 36 19 53 19
17 0 27 4 23 10 -8 12 -294 13 -313 1z"/>
<path d="M9042 4732 c-10 -7 -2 -11 26 -16 22 -3 45 -13 52 -21 16 -19 26
-533 13 -630 l-8 -60 -48 -16 c-69 -23 -42 -29 121 -29 140 0 197 11 127 24
-70 13 -75 27 -75 197 0 134 2 150 16 145 9 -3 28 -6 43 -6 24 0 43 -23 157
-180 l129 -180 100 3 c106 2 123 13 53 34 -22 6 -54 24 -71 40 -32 30 -231
293 -225 298 1 2 32 18 67 37 52 26 69 42 88 77 40 77 27 167 -33 223 -57 53
-91 60 -314 65 -117 2 -211 0 -218 -5z m387 -61 c58 -41 86 -111 71 -177 -16
-70 -86 -118 -188 -130 l-62 -7 0 166 0 166 33 4 c52 7 120 -3 146 -22z"/>
<path d="M5886 3719 c-40 -11 -63 -35 -81 -83 -14 -35 -14 -47 -3 -81 23 -69
107 -104 181 -76 20 8 26 18 29 53 3 24 8 50 12 58 5 13 -1 16 -31 18 -30 2
-35 0 -25 -10 6 -6 12 -33 12 -59 0 -54 -16 -66 -70 -54 -45 10 -70 52 -70
119 0 47 4 61 25 81 34 35 88 34 121 -2 l26 -28 -4 29 c-2 22 -9 30 -28 33
-14 1 -34 5 -45 7 -11 2 -33 0 -49 -5z"/>
<path d="M2890 3715 c0 -2 21 -34 46 -70 42 -60 46 -70 42 -115 -3 -48 -2 -50
22 -50 24 0 25 2 22 50 -4 54 17 99 76 163 l26 27 -33 0 c-22 0 -31 -4 -28
-12 2 -7 -7 -34 -21 -60 -20 -39 -28 -46 -39 -36 -21 17 -55 87 -48 98 4 6 -9
10 -29 10 -20 0 -36 -2 -36 -5z"/>
<path d="M3374 3686 c-29 -29 -34 -41 -34 -80 0 -81 47 -136 115 -136 68 0
115 55 115 136 0 39 -5 51 -34 80 -29 29 -41 34 -81 34 -40 0 -52 -5 -81 -34z
m135 -2 c16 -21 21 -41 21 -91 0 -55 -4 -67 -25 -88 -32 -33 -60 -31 -97 5
-29 29 -30 34 -26 97 3 54 8 69 27 84 34 27 75 24 100 -7z"/>
<path d="M3810 3694 c6 -14 10 -61 10 -104 0 -73 2 -80 26 -99 35 -27 93 -27
127 -1 26 21 30 36 40 178 3 43 1 52 -12 52 -14 0 -16 -12 -13 -80 5 -104 -1
-128 -39 -144 -42 -17 -78 -9 -90 21 -12 33 -12 160 1 184 10 17 7 19 -24 19
-34 0 -35 -1 -26 -26z"/>
<path d="M4265 3600 l0 -120 25 0 c24 0 25 2 22 55 -3 35 0 55 7 55 6 0 31
-25 55 -57 31 -38 53 -57 70 -59 32 -3 33 3 2 27 -14 11 -34 35 -46 54 l-22
36 26 20 c32 25 33 59 3 87 -19 18 -35 22 -83 22 l-59 0 0 -120z m114 85 c29
-28 -16 -96 -55 -81 -14 6 -21 86 -7 99 9 9 44 -1 62 -18z"/>
<path d="M4957 3713 c-4 -3 -7 -15 -7 -26 0 -18 1 -19 18 -4 9 8 28 17 42 19
25 3 25 3 28 -89 2 -53 -2 -102 -8 -113 -10 -18 -8 -20 17 -20 l28 0 -3 116
-4 117 33 -7 c17 -3 38 -14 45 -24 12 -15 13 -14 14 11 l0 27 -98 0 c-54 0
-102 -3 -105 -7z"/>
<path d="M5410 3623 c-23 -54 -49 -108 -56 -120 -13 -21 -13 -23 4 -23 13 0
21 11 28 38 9 36 11 37 56 40 44 3 48 1 63 -28 9 -17 13 -35 10 -40 -4 -6 7
-10 25 -10 l30 0 -24 48 c-13 26 -36 76 -51 112 -15 36 -30 69 -35 73 -4 5
-26 -36 -50 -90z m55 7 c24 -47 20 -60 -20 -60 -19 0 -35 4 -35 10 0 10 32 80
37 80 1 0 9 -13 18 -30z"/>
<path d="M6268 3600 l3 -120 42 -1 c122 -5 119 -5 128 20 13 32 6 36 -16 11
-23 -25 -100 -28 -109 -4 -10 25 -7 160 4 188 9 25 8 26 -23 26 l-32 0 3 -120z"/>
<path d="M6685 3600 l0 -120 25 0 25 0 0 120 0 120 -25 0 -25 0 0 -120z"/>
<path d="M6978 3708 c22 -11 23 -15 20 -120 -3 -91 -1 -108 12 -108 12 0 14
12 12 58 -2 32 -2 73 0 91 l3 33 73 -91 c41 -50 78 -91 82 -91 5 0 10 54 12
120 3 101 1 120 -12 120 -12 0 -14 -15 -11 -85 1 -47 -1 -85 -5 -84 -5 0 -38
37 -74 82 -58 72 -70 82 -100 84 -33 2 -33 2 -12 -9z"/>
<path d="M7451 3683 c12 -51 11 -146 -1 -177 -10 -29 -20 -26 120 -31 26 -1
38 4 47 19 20 34 15 41 -11 17 -18 -17 -33 -22 -67 -19 l-44 3 -3 48 -3 47 38
0 c22 0 44 -5 51 -12 9 -9 12 -4 12 22 0 26 -3 31 -12 22 -7 -7 -29 -12 -50
-12 l-38 0 0 44 0 43 46 7 c38 5 49 3 60 -11 12 -17 13 -16 14 5 0 21 -3 22
-84 22 l-84 0 9 -37z"/>
<path d="M8140 3701 c14 -28 13 -194 -2 -209 -9 -9 -3 -12 27 -12 30 0 36 3
27 12 -7 7 -12 31 -12 55 l0 43 60 0 60 0 0 -43 c0 -24 -5 -48 -12 -55 -9 -9
-3 -12 27 -12 30 0 36 3 27 12 -15 15 -16 165 -2 202 9 25 8 26 -26 26 -31 0
-34 -2 -24 -19 5 -11 10 -36 10 -55 l0 -36 -60 0 -60 0 0 43 c0 24 5 48 12 55
9 9 4 12 -25 12 -34 0 -37 -2 -27 -19z"/>
<path d="M8601 3688 c12 -43 12 -150 -1 -182 -9 -26 -9 -26 43 -28 28 -1 63
-2 77 -2 30 -2 50 11 50 32 0 13 -2 13 -18 -1 -12 -11 -36 -17 -65 -17 l-47 0
0 50 0 50 38 0 c21 0 43 -5 50 -12 9 -9 12 -5 12 20 0 29 -2 32 -19 22 -11 -5
-33 -10 -50 -10 -31 0 -31 1 -31 51 l0 50 48 -7 c26 -3 53 -11 60 -16 9 -8 12
-5 12 11 0 20 -5 21 -84 21 l-85 0 10 -32z"/>
<path d="M9010 3696 c13 -35 13 -172 0 -197 -9 -17 -7 -19 18 -19 27 0 28 2
27 48 0 26 4 49 9 52 6 3 30 -20 55 -50 35 -43 51 -55 75 -56 l30 -2 -25 19
c-14 10 -38 37 -54 59 l-28 40 27 21 c28 22 34 55 13 83 -10 14 -32 20 -86 24
l-72 5 11 -27z m107 -8 c33 -27 -2 -88 -49 -88 -15 0 -18 9 -18 56 l0 56 27
-7 c16 -4 34 -11 40 -17z"/>
<path d="M9445 3600 l0 -120 45 -2 c25 0 60 -1 78 -2 23 -1 37 5 44 17 12 24
5 32 -12 12 -8 -10 -30 -15 -61 -15 l-49 0 0 50 0 50 38 0 c21 0 43 -5 50 -12
9 -9 12 -5 12 20 0 31 -13 42 -25 22 -3 -5 -22 -10 -41 -10 l-34 0 0 50 c0 50
0 50 33 50 17 0 44 -7 60 -14 25 -14 27 -13 27 5 0 17 -8 19 -82 19 l-83 0 0
-120z"/>
</g>
</svg>
