<?xml version="1.0" standalone="no"?>
<!DOCTYPE svg PUBLIC "-//W3C//DTD SVG 20010904//EN"
 "http://www.w3.org/TR/2001/REC-SVG-20010904/DTD/svg10.dtd">
<svg version="1.0" xmlns="http://www.w3.org/2000/svg"
 width="172.000000pt" height="40.000000pt" viewBox="0 0 172.000000 40.000000"
 preserveAspectRatio="xMidYMid meet">

<g transform="translate(0.000000,40.000000) scale(0.100000,-0.100000)"
fill="#000000" stroke="none">
<path d="M1260 301 c0 -27 15 -48 92 -132 50 -54 95 -99 100 -99 4 0 8 56 8
125 l0 125 -25 0 c-24 0 -25 -2 -25 -67 l0 -67 -75 74 -75 74 0 -33z"/>
<path d="M460 295 l0 -25 115 0 115 0 0 25 0 25 -115 0 -115 0 0 -25z"/>
<path d="M722 224 c3 -90 5 -97 31 -119 39 -35 88 -41 134 -19 51 25 63 54 63
152 l0 82 -30 0 -30 0 0 -76 c0 -94 -10 -114 -55 -114 -45 0 -55 20 -55 114
l0 76 -31 0 -31 0 4 -96z"/>
<path d="M980 295 c0 -25 2 -25 77 -25 72 0 76 -1 60 -17 -10 -11 -38 -18 -77
-21 l-60 -4 0 -79 0 -79 30 0 c30 0 30 1 30 55 0 54 0 55 29 55 25 0 34 -8 61
-55 27 -47 36 -55 61 -55 16 0 29 2 29 4 0 3 -16 31 -35 63 -19 32 -35 62 -35
66 0 5 9 20 20 34 11 14 20 39 20 54 l0 29 -105 0 -105 0 0 -25z"/>
<path d="M1522 297 c-27 -29 -28 -67 -3 -98 15 -19 32 -25 83 -29 47 -4 63 -9
63 -20 0 -11 -14 -16 -57 -18 -36 -2 -58 1 -58 8 0 5 -11 10 -25 10 -33 0 -32
-23 1 -57 23 -23 31 -25 91 -21 54 3 69 8 84 27 25 31 24 64 -4 97 -18 21 -35
27 -82 33 -44 4 -60 10 -60 21 0 18 92 27 108 11 6 -6 21 -11 34 -11 29 0 30
23 3 50 -16 16 -33 20 -88 20 -59 0 -72 -3 -90 -23z"/>
<path d="M460 150 l0 -80 30 0 c30 0 30 1 30 55 l0 55 70 0 c68 0 70 1 70 25
l0 25 -100 0 -100 0 0 -80z"/>
<path d="M1260 137 c0 -65 1 -67 25 -67 23 0 25 4 25 43 0 33 -6 49 -25 67
l-25 23 0 -66z"/>
</g>
</svg>
